<mxfile host="www.draw.io" modified="2019-11-18T02:36:43.942Z" agent="Mozilla/5.0 (Macintosh; Intel Mac OS X 10_14_6) AppleWebKit/537.36 (KHTML, like Gecko) Chrome/78.0.3904.70 Safari/537.36" etag="hAdNId_nw6bBgSkgGLr1" version="12.2.6" type="github" pages="2">
  <diagram id="Ty7VeFaSjmbMnnNTwiSE" name="overall">
    <mxGraphModel dx="857" dy="1634" grid="1" gridSize="10" guides="1" tooltips="1" connect="1" arrows="1" fold="1" page="1" pageScale="1" pageWidth="827" pageHeight="1169" math="0" shadow="0">
      <root>
        <mxCell id="0"/>
        <mxCell id="1" parent="0"/>
        <mxCell id="rK1L7pS0zqMWwbK4X8Iv-25" value="SGAS Service(Java Project)" style="rounded=1;whiteSpace=wrap;html=1;strokeWidth=2;fontSize=16;verticalAlign=top;arcSize=0;fillColor=#d5e8d4;strokeColor=#82b366;" vertex="1" parent="1">
          <mxGeometry x="80" y="-30" width="820" height="320" as="geometry"/>
        </mxCell>
        <mxCell id="rK1L7pS0zqMWwbK4X8Iv-27" value="" style="rounded=1;whiteSpace=wrap;html=1;strokeWidth=2;arcSize=50;fontSize=16;" vertex="1" parent="1">
          <mxGeometry x="110" y="210" width="760" height="60" as="geometry"/>
        </mxCell>
        <mxCell id="rK1L7pS0zqMWwbK4X8Iv-28" value="Sports One &amp;amp; Wechat User Binding" style="rounded=1;whiteSpace=wrap;html=1;strokeWidth=2;arcSize=50;" vertex="1" parent="1">
          <mxGeometry x="150" y="220" width="130" height="40" as="geometry"/>
        </mxCell>
        <mxCell id="rK1L7pS0zqMWwbK4X8Iv-32" value="" style="group" vertex="1" connectable="0" parent="1">
          <mxGeometry x="80" y="400" width="260" height="200" as="geometry"/>
        </mxCell>
        <mxCell id="rK1L7pS0zqMWwbK4X8Iv-1" value="BSU&lt;span style=&quot;background-color: rgb(248 , 249 , 250)&quot;&gt;&lt;br&gt;&lt;/span&gt;&lt;a href=&quot;https://s1.bsu.edu.cn/&quot; class=&quot;external-link&quot; style=&quot;color: rgb(59 , 115 , 175) ; font-size: 14px ; background-color: rgb(255 , 255 , 255)&quot;&gt;https://s1.bsu.edu.cn/&lt;/a&gt;" style="rounded=1;whiteSpace=wrap;html=1;verticalAlign=top;strokeWidth=2;fontSize=16;align=left;arcSize=0;" vertex="1" parent="rK1L7pS0zqMWwbK4X8Iv-32">
          <mxGeometry width="260" height="200" as="geometry"/>
        </mxCell>
        <mxCell id="rK1L7pS0zqMWwbK4X8Iv-30" value="" style="group" vertex="1" connectable="0" parent="rK1L7pS0zqMWwbK4X8Iv-32">
          <mxGeometry x="10" y="120" width="240" height="70" as="geometry"/>
        </mxCell>
        <mxCell id="rK1L7pS0zqMWwbK4X8Iv-6" value="" style="rounded=1;whiteSpace=wrap;html=1;strokeWidth=2;arcSize=50;fontSize=16;" vertex="1" parent="rK1L7pS0zqMWwbK4X8Iv-30">
          <mxGeometry width="240" height="70" as="geometry"/>
        </mxCell>
        <mxCell id="rK1L7pS0zqMWwbK4X8Iv-2" value="FND" style="rounded=1;whiteSpace=wrap;html=1;strokeWidth=2;arcSize=50;" vertex="1" parent="rK1L7pS0zqMWwbK4X8Iv-30">
          <mxGeometry x="23" y="6" width="60" height="24" as="geometry"/>
        </mxCell>
        <mxCell id="rK1L7pS0zqMWwbK4X8Iv-7" value="TRM" style="rounded=1;whiteSpace=wrap;html=1;strokeWidth=2;arcSize=50;" vertex="1" parent="rK1L7pS0zqMWwbK4X8Iv-30">
          <mxGeometry x="93" y="6" width="60" height="24" as="geometry"/>
        </mxCell>
        <mxCell id="rK1L7pS0zqMWwbK4X8Iv-8" value="MED" style="rounded=1;whiteSpace=wrap;html=1;strokeWidth=2;arcSize=50;" vertex="1" parent="rK1L7pS0zqMWwbK4X8Iv-30">
          <mxGeometry x="163" y="6" width="60" height="24" as="geometry"/>
        </mxCell>
        <mxCell id="rK1L7pS0zqMWwbK4X8Iv-9" value="Performance" style="rounded=1;whiteSpace=wrap;html=1;strokeWidth=2;arcSize=50;" vertex="1" parent="rK1L7pS0zqMWwbK4X8Iv-30">
          <mxGeometry x="23" y="35" width="130" height="24" as="geometry"/>
        </mxCell>
        <mxCell id="rK1L7pS0zqMWwbK4X8Iv-10" value="..." style="rounded=1;whiteSpace=wrap;html=1;strokeWidth=2;arcSize=50;" vertex="1" parent="rK1L7pS0zqMWwbK4X8Iv-30">
          <mxGeometry x="163" y="35" width="60" height="24" as="geometry"/>
        </mxCell>
        <mxCell id="rK1L7pS0zqMWwbK4X8Iv-31" value="Sports One App" style="rounded=1;whiteSpace=wrap;html=1;strokeWidth=2;fontSize=12;align=center;" vertex="1" parent="rK1L7pS0zqMWwbK4X8Iv-32">
          <mxGeometry x="15" y="55" width="225" height="45" as="geometry"/>
        </mxCell>
        <mxCell id="rK1L7pS0zqMWwbK4X8Iv-33" value="" style="group" vertex="1" connectable="0" parent="1">
          <mxGeometry x="360" y="400" width="260" height="200" as="geometry"/>
        </mxCell>
        <mxCell id="rK1L7pS0zqMWwbK4X8Iv-34" value="NMZY&lt;span style=&quot;background-color: rgb(248 , 249 , 250)&quot;&gt;&lt;br&gt;&lt;/span&gt;&lt;a href=&quot;https://huhhot.bsu.edu.cn/&quot; class=&quot;external-link&quot; style=&quot;color: rgb(59 , 115 , 175) ; font-size: 14px ; background-color: rgb(255 , 255 , 255)&quot;&gt;https://huhhot.bsu.edu.cn/&lt;/a&gt;" style="rounded=1;whiteSpace=wrap;html=1;verticalAlign=top;strokeWidth=2;fontSize=16;align=left;arcSize=0;" vertex="1" parent="rK1L7pS0zqMWwbK4X8Iv-33">
          <mxGeometry width="260" height="200" as="geometry"/>
        </mxCell>
        <mxCell id="rK1L7pS0zqMWwbK4X8Iv-35" value="" style="group" vertex="1" connectable="0" parent="rK1L7pS0zqMWwbK4X8Iv-33">
          <mxGeometry x="10" y="120" width="240" height="70" as="geometry"/>
        </mxCell>
        <mxCell id="rK1L7pS0zqMWwbK4X8Iv-36" value="" style="rounded=1;whiteSpace=wrap;html=1;strokeWidth=2;arcSize=50;fontSize=16;" vertex="1" parent="rK1L7pS0zqMWwbK4X8Iv-35">
          <mxGeometry width="240" height="70" as="geometry"/>
        </mxCell>
        <mxCell id="rK1L7pS0zqMWwbK4X8Iv-37" value="FND" style="rounded=1;whiteSpace=wrap;html=1;strokeWidth=2;arcSize=50;" vertex="1" parent="rK1L7pS0zqMWwbK4X8Iv-35">
          <mxGeometry x="23" y="6" width="60" height="24" as="geometry"/>
        </mxCell>
        <mxCell id="rK1L7pS0zqMWwbK4X8Iv-38" value="TRM" style="rounded=1;whiteSpace=wrap;html=1;strokeWidth=2;arcSize=50;" vertex="1" parent="rK1L7pS0zqMWwbK4X8Iv-35">
          <mxGeometry x="93" y="6" width="60" height="24" as="geometry"/>
        </mxCell>
        <mxCell id="rK1L7pS0zqMWwbK4X8Iv-39" value="MED" style="rounded=1;whiteSpace=wrap;html=1;strokeWidth=2;arcSize=50;" vertex="1" parent="rK1L7pS0zqMWwbK4X8Iv-35">
          <mxGeometry x="163" y="6" width="60" height="24" as="geometry"/>
        </mxCell>
        <mxCell id="rK1L7pS0zqMWwbK4X8Iv-40" value="Performance" style="rounded=1;whiteSpace=wrap;html=1;strokeWidth=2;arcSize=50;" vertex="1" parent="rK1L7pS0zqMWwbK4X8Iv-35">
          <mxGeometry x="23" y="35" width="130" height="24" as="geometry"/>
        </mxCell>
        <mxCell id="rK1L7pS0zqMWwbK4X8Iv-41" value="..." style="rounded=1;whiteSpace=wrap;html=1;strokeWidth=2;arcSize=50;" vertex="1" parent="rK1L7pS0zqMWwbK4X8Iv-35">
          <mxGeometry x="163" y="35" width="60" height="24" as="geometry"/>
        </mxCell>
        <mxCell id="rK1L7pS0zqMWwbK4X8Iv-42" value="Sports One App" style="rounded=1;whiteSpace=wrap;html=1;strokeWidth=2;fontSize=12;align=center;" vertex="1" parent="rK1L7pS0zqMWwbK4X8Iv-33">
          <mxGeometry x="15" y="55" width="225" height="45" as="geometry"/>
        </mxCell>
        <mxCell id="rK1L7pS0zqMWwbK4X8Iv-43" value="" style="group" vertex="1" connectable="0" parent="1">
          <mxGeometry x="640" y="400" width="260" height="200" as="geometry"/>
        </mxCell>
        <mxCell id="rK1L7pS0zqMWwbK4X8Iv-44" value="&lt;span style=&quot;background-color: rgb(248 , 249 , 250)&quot;&gt;CFA&lt;br&gt;&lt;/span&gt;&lt;a href=&quot;https://nt.bsu.edu.cn/&quot; class=&quot;external-link&quot; style=&quot;color: rgb(59 , 115 , 175) ; font-size: 14px ; background-color: rgb(255 , 255 , 255)&quot;&gt;https://nt.bsu.edu.cn/&lt;/a&gt;" style="rounded=1;whiteSpace=wrap;html=1;verticalAlign=top;strokeWidth=2;fontSize=16;align=left;arcSize=0;" vertex="1" parent="rK1L7pS0zqMWwbK4X8Iv-43">
          <mxGeometry width="260" height="200" as="geometry"/>
        </mxCell>
        <mxCell id="rK1L7pS0zqMWwbK4X8Iv-45" value="" style="group" vertex="1" connectable="0" parent="rK1L7pS0zqMWwbK4X8Iv-43">
          <mxGeometry x="10" y="120" width="240" height="70" as="geometry"/>
        </mxCell>
        <mxCell id="rK1L7pS0zqMWwbK4X8Iv-46" value="" style="rounded=1;whiteSpace=wrap;html=1;strokeWidth=2;arcSize=50;fontSize=16;" vertex="1" parent="rK1L7pS0zqMWwbK4X8Iv-45">
          <mxGeometry width="240" height="70" as="geometry"/>
        </mxCell>
        <mxCell id="rK1L7pS0zqMWwbK4X8Iv-47" value="FND" style="rounded=1;whiteSpace=wrap;html=1;strokeWidth=2;arcSize=50;" vertex="1" parent="rK1L7pS0zqMWwbK4X8Iv-45">
          <mxGeometry x="23" y="6" width="60" height="24" as="geometry"/>
        </mxCell>
        <mxCell id="rK1L7pS0zqMWwbK4X8Iv-48" value="TRM" style="rounded=1;whiteSpace=wrap;html=1;strokeWidth=2;arcSize=50;" vertex="1" parent="rK1L7pS0zqMWwbK4X8Iv-45">
          <mxGeometry x="93" y="6" width="60" height="24" as="geometry"/>
        </mxCell>
        <mxCell id="rK1L7pS0zqMWwbK4X8Iv-49" value="MED" style="rounded=1;whiteSpace=wrap;html=1;strokeWidth=2;arcSize=50;" vertex="1" parent="rK1L7pS0zqMWwbK4X8Iv-45">
          <mxGeometry x="163" y="6" width="60" height="24" as="geometry"/>
        </mxCell>
        <mxCell id="rK1L7pS0zqMWwbK4X8Iv-50" value="Performance" style="rounded=1;whiteSpace=wrap;html=1;strokeWidth=2;arcSize=50;" vertex="1" parent="rK1L7pS0zqMWwbK4X8Iv-45">
          <mxGeometry x="23" y="35" width="130" height="24" as="geometry"/>
        </mxCell>
        <mxCell id="rK1L7pS0zqMWwbK4X8Iv-51" value="..." style="rounded=1;whiteSpace=wrap;html=1;strokeWidth=2;arcSize=50;" vertex="1" parent="rK1L7pS0zqMWwbK4X8Iv-45">
          <mxGeometry x="163" y="35" width="60" height="24" as="geometry"/>
        </mxCell>
        <mxCell id="rK1L7pS0zqMWwbK4X8Iv-52" value="Sports One App" style="rounded=1;whiteSpace=wrap;html=1;strokeWidth=2;fontSize=12;align=center;" vertex="1" parent="rK1L7pS0zqMWwbK4X8Iv-43">
          <mxGeometry x="15" y="55" width="225" height="45" as="geometry"/>
        </mxCell>
        <mxCell id="rK1L7pS0zqMWwbK4X8Iv-53" value="log" style="rounded=1;whiteSpace=wrap;html=1;strokeWidth=2;arcSize=50;" vertex="1" parent="1">
          <mxGeometry x="295" y="220" width="130" height="40" as="geometry"/>
        </mxCell>
        <mxCell id="rK1L7pS0zqMWwbK4X8Iv-54" value="..." style="rounded=1;whiteSpace=wrap;html=1;strokeWidth=2;arcSize=50;" vertex="1" parent="1">
          <mxGeometry x="440" y="220" width="130" height="40" as="geometry"/>
        </mxCell>
        <mxCell id="rK1L7pS0zqMWwbK4X8Iv-57" value="" style="ellipse;whiteSpace=wrap;html=1;aspect=fixed;strokeWidth=2;fontSize=12;align=left;" vertex="1" parent="1">
          <mxGeometry x="200" y="340" width="20" height="20" as="geometry"/>
        </mxCell>
        <mxCell id="rK1L7pS0zqMWwbK4X8Iv-58" value="R" style="endArrow=classic;html=1;fontSize=12;" edge="1" parent="1">
          <mxGeometry width="50" height="50" relative="1" as="geometry">
            <mxPoint x="194" y="350" as="sourcePoint"/>
            <mxPoint x="194" y="360" as="targetPoint"/>
            <Array as="points">
              <mxPoint x="194" y="340"/>
            </Array>
          </mxGeometry>
        </mxCell>
        <mxCell id="rK1L7pS0zqMWwbK4X8Iv-60" value="" style="edgeStyle=elbowEdgeStyle;elbow=vertical;endArrow=none;html=1;endFill=0;fontSize=12;entryX=0.25;entryY=1;entryDx=0;entryDy=0;exitX=0.5;exitY=0;exitDx=0;exitDy=0;" edge="1" parent="1" source="rK1L7pS0zqMWwbK4X8Iv-57" target="rK1L7pS0zqMWwbK4X8Iv-25">
          <mxGeometry width="50" height="50" relative="1" as="geometry">
            <mxPoint x="380" y="370" as="sourcePoint"/>
            <mxPoint x="429.9999999999999" y="320" as="targetPoint"/>
          </mxGeometry>
        </mxCell>
        <mxCell id="rK1L7pS0zqMWwbK4X8Iv-61" value="" style="edgeStyle=elbowEdgeStyle;elbow=vertical;endArrow=none;html=1;endFill=0;fontSize=12;exitX=0.5;exitY=0;exitDx=0;exitDy=0;entryX=0.5;entryY=1;entryDx=0;entryDy=0;" edge="1" parent="1" source="rK1L7pS0zqMWwbK4X8Iv-1" target="rK1L7pS0zqMWwbK4X8Iv-57">
          <mxGeometry width="50" height="50" relative="1" as="geometry">
            <mxPoint x="290" y="380" as="sourcePoint"/>
            <mxPoint x="339.9999999999999" y="330" as="targetPoint"/>
          </mxGeometry>
        </mxCell>
        <mxCell id="rK1L7pS0zqMWwbK4X8Iv-62" value="" style="ellipse;whiteSpace=wrap;html=1;aspect=fixed;strokeWidth=2;fontSize=12;align=left;" vertex="1" parent="1">
          <mxGeometry x="480" y="340" width="20" height="20" as="geometry"/>
        </mxCell>
        <mxCell id="rK1L7pS0zqMWwbK4X8Iv-63" value="" style="edgeStyle=elbowEdgeStyle;elbow=vertical;endArrow=none;html=1;endFill=0;fontSize=12;entryX=0.5;entryY=1;entryDx=0;entryDy=0;exitX=0.5;exitY=0;exitDx=0;exitDy=0;" edge="1" parent="1" source="rK1L7pS0zqMWwbK4X8Iv-62" target="rK1L7pS0zqMWwbK4X8Iv-25">
          <mxGeometry width="50" height="50" relative="1" as="geometry">
            <mxPoint x="610" y="360" as="sourcePoint"/>
            <mxPoint x="659.9999999999999" y="310" as="targetPoint"/>
          </mxGeometry>
        </mxCell>
        <mxCell id="rK1L7pS0zqMWwbK4X8Iv-64" value="" style="edgeStyle=elbowEdgeStyle;elbow=vertical;endArrow=none;html=1;endFill=0;fontSize=12;entryX=0.5;entryY=1;entryDx=0;entryDy=0;exitX=0.5;exitY=0;exitDx=0;exitDy=0;" edge="1" parent="1" source="rK1L7pS0zqMWwbK4X8Iv-34" target="rK1L7pS0zqMWwbK4X8Iv-62">
          <mxGeometry width="50" height="50" relative="1" as="geometry">
            <mxPoint x="410" y="380" as="sourcePoint"/>
            <mxPoint x="459.9999999999999" y="330" as="targetPoint"/>
          </mxGeometry>
        </mxCell>
        <mxCell id="rK1L7pS0zqMWwbK4X8Iv-65" value="R" style="endArrow=classic;html=1;fontSize=12;" edge="1" parent="1">
          <mxGeometry width="50" height="50" relative="1" as="geometry">
            <mxPoint x="470" y="350" as="sourcePoint"/>
            <mxPoint x="470" y="360" as="targetPoint"/>
            <Array as="points">
              <mxPoint x="470" y="340"/>
            </Array>
          </mxGeometry>
        </mxCell>
        <mxCell id="rK1L7pS0zqMWwbK4X8Iv-66" value="" style="ellipse;whiteSpace=wrap;html=1;aspect=fixed;strokeWidth=2;fontSize=12;align=left;" vertex="1" parent="1">
          <mxGeometry x="760" y="340" width="20" height="20" as="geometry"/>
        </mxCell>
        <mxCell id="rK1L7pS0zqMWwbK4X8Iv-67" value="" style="edgeStyle=elbowEdgeStyle;elbow=vertical;endArrow=none;html=1;endFill=0;fontSize=12;entryX=0.75;entryY=1;entryDx=0;entryDy=0;exitX=0.5;exitY=0;exitDx=0;exitDy=0;" edge="1" parent="1" source="rK1L7pS0zqMWwbK4X8Iv-66" target="rK1L7pS0zqMWwbK4X8Iv-25">
          <mxGeometry width="50" height="50" relative="1" as="geometry">
            <mxPoint x="650" y="370" as="sourcePoint"/>
            <mxPoint x="699.9999999999999" y="320" as="targetPoint"/>
          </mxGeometry>
        </mxCell>
        <mxCell id="rK1L7pS0zqMWwbK4X8Iv-68" value="" style="edgeStyle=elbowEdgeStyle;elbow=vertical;endArrow=none;html=1;endFill=0;fontSize=12;entryX=0.5;entryY=1;entryDx=0;entryDy=0;exitX=0.5;exitY=0;exitDx=0;exitDy=0;" edge="1" parent="1" source="rK1L7pS0zqMWwbK4X8Iv-44" target="rK1L7pS0zqMWwbK4X8Iv-66">
          <mxGeometry width="50" height="50" relative="1" as="geometry">
            <mxPoint x="610" y="380" as="sourcePoint"/>
            <mxPoint x="659.9999999999999" y="330" as="targetPoint"/>
          </mxGeometry>
        </mxCell>
        <mxCell id="rK1L7pS0zqMWwbK4X8Iv-69" value="R" style="endArrow=classic;html=1;fontSize=12;" edge="1" parent="1">
          <mxGeometry width="50" height="50" relative="1" as="geometry">
            <mxPoint x="750" y="350" as="sourcePoint"/>
            <mxPoint x="750" y="360" as="targetPoint"/>
            <Array as="points">
              <mxPoint x="750" y="340"/>
            </Array>
          </mxGeometry>
        </mxCell>
        <mxCell id="rK1L7pS0zqMWwbK4X8Iv-77" value="" style="group" vertex="1" connectable="0" parent="1">
          <mxGeometry x="110" y="40" width="760" height="140" as="geometry"/>
        </mxCell>
        <mxCell id="rK1L7pS0zqMWwbK4X8Iv-76" value="" style="group" vertex="1" connectable="0" parent="rK1L7pS0zqMWwbK4X8Iv-77">
          <mxGeometry y="-30" width="760" height="130" as="geometry"/>
        </mxCell>
        <mxCell id="rK1L7pS0zqMWwbK4X8Iv-26" value="Spring Boot Tomcat Container" style="rounded=1;whiteSpace=wrap;html=1;strokeWidth=2;fontSize=12;verticalAlign=top;align=center;" vertex="1" parent="rK1L7pS0zqMWwbK4X8Iv-76">
          <mxGeometry width="760" height="130" as="geometry"/>
        </mxCell>
        <mxCell id="rK1L7pS0zqMWwbK4X8Iv-70" value="Spring Boot Security" style="rounded=1;whiteSpace=wrap;html=1;strokeWidth=2;fontSize=12;align=center;" vertex="1" parent="rK1L7pS0zqMWwbK4X8Iv-76">
          <mxGeometry x="39" y="80" width="191" height="40" as="geometry"/>
        </mxCell>
        <mxCell id="rK1L7pS0zqMWwbK4X8Iv-71" value="Spring Boot JPA" style="rounded=1;whiteSpace=wrap;html=1;strokeWidth=2;fontSize=12;align=center;" vertex="1" parent="rK1L7pS0zqMWwbK4X8Iv-76">
          <mxGeometry x="280" y="80" width="190" height="40" as="geometry"/>
        </mxCell>
        <mxCell id="rK1L7pS0zqMWwbK4X8Iv-72" value="Sports One Integration" style="rounded=1;whiteSpace=wrap;html=1;strokeWidth=2;fontSize=12;align=center;" vertex="1" parent="rK1L7pS0zqMWwbK4X8Iv-76">
          <mxGeometry x="280" y="30" width="191" height="40" as="geometry"/>
        </mxCell>
        <mxCell id="rK1L7pS0zqMWwbK4X8Iv-73" value="Swagger2" style="rounded=1;whiteSpace=wrap;html=1;strokeWidth=2;fontSize=12;align=center;" vertex="1" parent="rK1L7pS0zqMWwbK4X8Iv-76">
          <mxGeometry x="530" y="80" width="180" height="40" as="geometry"/>
        </mxCell>
        <mxCell id="rK1L7pS0zqMWwbK4X8Iv-74" value="Wechat Integration" style="rounded=1;whiteSpace=wrap;html=1;strokeWidth=2;fontSize=12;align=center;" vertex="1" parent="rK1L7pS0zqMWwbK4X8Iv-76">
          <mxGeometry x="530" y="30" width="180" height="40" as="geometry"/>
        </mxCell>
        <mxCell id="rK1L7pS0zqMWwbK4X8Iv-75" value="&lt;font style=&quot;font-size: 12px&quot;&gt;&lt;span style=&quot;color: rgb(77 , 77 , 77) ; font-family: &amp;#34;microsoft yahei&amp;#34; , &amp;#34;sf pro display&amp;#34; , &amp;#34;roboto&amp;#34; , &amp;#34;noto&amp;#34; , &amp;#34;arial&amp;#34; , &amp;#34;pingfang sc&amp;#34; , sans-serif ; background-color: rgb(255 , 255 , 255)&quot;&gt;autentication &amp;amp;&amp;nbsp;&lt;/span&gt;&lt;span style=&quot;color: rgb(77 , 77 , 77) ; font-family: &amp;#34;microsoft yahei&amp;#34; , &amp;#34;sf pro display&amp;#34; , &amp;#34;roboto&amp;#34; , &amp;#34;noto&amp;#34; , &amp;#34;arial&amp;#34; , &amp;#34;pingfang sc&amp;#34; , sans-serif ; background-color: rgb(255 , 255 , 255)&quot;&gt;authorization&lt;/span&gt;&lt;/font&gt;" style="rounded=1;whiteSpace=wrap;html=1;strokeWidth=2;fontSize=12;align=center;" vertex="1" parent="rK1L7pS0zqMWwbK4X8Iv-76">
          <mxGeometry x="40" y="30" width="191" height="40" as="geometry"/>
        </mxCell>
        <mxCell id="rK1L7pS0zqMWwbK4X8Iv-78" value="" style="ellipse;whiteSpace=wrap;html=1;aspect=fixed;strokeWidth=2;fontSize=12;align=center;" vertex="1" parent="rK1L7pS0zqMWwbK4X8Iv-77">
          <mxGeometry x="370" y="120" width="20" height="20" as="geometry"/>
        </mxCell>
        <mxCell id="rK1L7pS0zqMWwbK4X8Iv-80" value="" style="edgeStyle=elbowEdgeStyle;elbow=vertical;endArrow=none;html=1;endFill=0;fontSize=12;entryX=0.5;entryY=1;entryDx=0;entryDy=0;exitX=0.5;exitY=0;exitDx=0;exitDy=0;" edge="1" parent="rK1L7pS0zqMWwbK4X8Iv-77" source="rK1L7pS0zqMWwbK4X8Iv-78" target="rK1L7pS0zqMWwbK4X8Iv-26">
          <mxGeometry width="50" height="50" relative="1" as="geometry">
            <mxPoint x="230" y="180" as="sourcePoint"/>
            <mxPoint x="279.9999999999999" y="130" as="targetPoint"/>
          </mxGeometry>
        </mxCell>
        <mxCell id="rK1L7pS0zqMWwbK4X8Iv-81" value="R" style="endArrow=classic;html=1;fontSize=12;" edge="1" parent="rK1L7pS0zqMWwbK4X8Iv-77">
          <mxGeometry width="50" height="50" relative="1" as="geometry">
            <mxPoint x="360" y="130" as="sourcePoint"/>
            <mxPoint x="360" y="140" as="targetPoint"/>
            <Array as="points">
              <mxPoint x="360" y="120"/>
            </Array>
          </mxGeometry>
        </mxCell>
        <mxCell id="rK1L7pS0zqMWwbK4X8Iv-79" value="" style="edgeStyle=elbowEdgeStyle;elbow=vertical;endArrow=none;html=1;endFill=0;fontSize=12;entryX=0.5;entryY=1;entryDx=0;entryDy=0;" edge="1" parent="1" source="rK1L7pS0zqMWwbK4X8Iv-27" target="rK1L7pS0zqMWwbK4X8Iv-78">
          <mxGeometry width="50" height="50" relative="1" as="geometry">
            <mxPoint x="400" y="220" as="sourcePoint"/>
            <mxPoint x="449.9999999999999" y="170" as="targetPoint"/>
          </mxGeometry>
        </mxCell>
        <mxCell id="rK1L7pS0zqMWwbK4X8Iv-82" value="SGAS Service App(Angular Project)" style="rounded=1;whiteSpace=wrap;html=1;strokeWidth=2;fontSize=16;verticalAlign=top;arcSize=0;fillColor=#d5e8d4;strokeColor=#82b366;" vertex="1" parent="1">
          <mxGeometry x="80" y="-250" width="290" height="130" as="geometry"/>
        </mxCell>
        <mxCell id="rK1L7pS0zqMWwbK4X8Iv-84" value="Static Resource" style="rounded=1;whiteSpace=wrap;html=1;strokeWidth=2;arcSize=50;fontSize=12;align=center;" vertex="1" parent="1">
          <mxGeometry x="100" y="-200" width="250" height="50" as="geometry"/>
        </mxCell>
        <mxCell id="rK1L7pS0zqMWwbK4X8Iv-85" value="Wechat" style="rounded=1;whiteSpace=wrap;html=1;strokeWidth=2;fontSize=16;verticalAlign=middle;arcSize=0;fillColor=#ffe6cc;strokeColor=#d79b00;" vertex="1" parent="1">
          <mxGeometry x="480" y="-250" width="420" height="130" as="geometry"/>
        </mxCell>
        <mxCell id="rK1L7pS0zqMWwbK4X8Iv-86" value="" style="ellipse;whiteSpace=wrap;html=1;aspect=fixed;strokeWidth=2;fontSize=12;align=center;" vertex="1" parent="1">
          <mxGeometry x="413" y="-195" width="20" height="20" as="geometry"/>
        </mxCell>
        <mxCell id="rK1L7pS0zqMWwbK4X8Iv-87" value="" style="edgeStyle=elbowEdgeStyle;elbow=horizontal;endArrow=none;html=1;endFill=0;fontSize=12;entryX=0;entryY=0.5;entryDx=0;entryDy=0;exitX=1;exitY=0.5;exitDx=0;exitDy=0;" edge="1" parent="1" source="rK1L7pS0zqMWwbK4X8Iv-86" target="rK1L7pS0zqMWwbK4X8Iv-85">
          <mxGeometry width="50" height="50" relative="1" as="geometry">
            <mxPoint x="400" y="-110" as="sourcePoint"/>
            <mxPoint x="460" y="-150" as="targetPoint"/>
          </mxGeometry>
        </mxCell>
        <mxCell id="rK1L7pS0zqMWwbK4X8Iv-88" value="" style="edgeStyle=elbowEdgeStyle;elbow=horizontal;endArrow=none;html=1;endFill=0;fontSize=12;entryX=0;entryY=0.5;entryDx=0;entryDy=0;exitX=1;exitY=0.5;exitDx=0;exitDy=0;" edge="1" parent="1" source="rK1L7pS0zqMWwbK4X8Iv-82" target="rK1L7pS0zqMWwbK4X8Iv-86">
          <mxGeometry width="50" height="50" relative="1" as="geometry">
            <mxPoint x="320" y="-50" as="sourcePoint"/>
            <mxPoint x="380" y="-90" as="targetPoint"/>
          </mxGeometry>
        </mxCell>
        <mxCell id="rK1L7pS0zqMWwbK4X8Iv-89" value="R" style="endArrow=classic;html=1;fontSize=12;" edge="1" parent="1">
          <mxGeometry x="-1" y="-10" width="50" height="50" relative="1" as="geometry">
            <mxPoint x="424" y="-205" as="sourcePoint"/>
            <mxPoint x="434" y="-205" as="targetPoint"/>
            <Array as="points"/>
            <mxPoint x="-10" y="-10" as="offset"/>
          </mxGeometry>
        </mxCell>
        <mxCell id="rK1L7pS0zqMWwbK4X8Iv-90" value="" style="ellipse;whiteSpace=wrap;html=1;aspect=fixed;strokeWidth=2;fontSize=12;align=center;" vertex="1" parent="1">
          <mxGeometry x="215" y="-90" width="20" height="20" as="geometry"/>
        </mxCell>
        <mxCell id="rK1L7pS0zqMWwbK4X8Iv-91" value="" style="edgeStyle=elbowEdgeStyle;elbow=vertical;endArrow=none;html=1;endFill=0;fontSize=12;entryX=0.5;entryY=1;entryDx=0;entryDy=0;exitX=0.5;exitY=0;exitDx=0;exitDy=0;" edge="1" parent="1" source="rK1L7pS0zqMWwbK4X8Iv-25" target="rK1L7pS0zqMWwbK4X8Iv-90">
          <mxGeometry width="50" height="50" relative="1" as="geometry">
            <mxPoint x="280" y="-40" as="sourcePoint"/>
            <mxPoint x="329.9999999999999" y="-90" as="targetPoint"/>
          </mxGeometry>
        </mxCell>
        <mxCell id="rK1L7pS0zqMWwbK4X8Iv-92" value="" style="edgeStyle=elbowEdgeStyle;elbow=vertical;endArrow=none;html=1;endFill=0;fontSize=12;entryX=0.5;entryY=1;entryDx=0;entryDy=0;exitX=0.5;exitY=0;exitDx=0;exitDy=0;" edge="1" parent="1" source="rK1L7pS0zqMWwbK4X8Iv-90" target="rK1L7pS0zqMWwbK4X8Iv-82">
          <mxGeometry width="50" height="50" relative="1" as="geometry">
            <mxPoint x="150" y="-30" as="sourcePoint"/>
            <mxPoint x="199.9999999999999" y="-80" as="targetPoint"/>
          </mxGeometry>
        </mxCell>
        <mxCell id="rK1L7pS0zqMWwbK4X8Iv-95" value="R" style="endArrow=classic;html=1;fontSize=12;" edge="1" parent="1">
          <mxGeometry width="50" height="50" relative="1" as="geometry">
            <mxPoint x="210" y="-80" as="sourcePoint"/>
            <mxPoint x="210" y="-70" as="targetPoint"/>
            <Array as="points">
              <mxPoint x="210" y="-90"/>
            </Array>
          </mxGeometry>
        </mxCell>
        <mxCell id="rK1L7pS0zqMWwbK4X8Iv-96" value="" style="ellipse;whiteSpace=wrap;html=1;aspect=fixed;strokeWidth=2;fontSize=12;align=center;" vertex="1" parent="1">
          <mxGeometry x="680" y="-90" width="20" height="20" as="geometry"/>
        </mxCell>
        <mxCell id="rK1L7pS0zqMWwbK4X8Iv-97" value="" style="edgeStyle=elbowEdgeStyle;elbow=vertical;endArrow=none;html=1;endFill=0;fontSize=12;entryX=0.5;entryY=1;entryDx=0;entryDy=0;exitX=0.5;exitY=0;exitDx=0;exitDy=0;" edge="1" parent="1" source="rK1L7pS0zqMWwbK4X8Iv-25" target="rK1L7pS0zqMWwbK4X8Iv-96">
          <mxGeometry width="50" height="50" relative="1" as="geometry">
            <mxPoint x="600" y="-40" as="sourcePoint"/>
            <mxPoint x="649.9999999999999" y="-90" as="targetPoint"/>
          </mxGeometry>
        </mxCell>
        <mxCell id="rK1L7pS0zqMWwbK4X8Iv-98" value="" style="edgeStyle=elbowEdgeStyle;elbow=vertical;endArrow=none;html=1;endFill=0;fontSize=12;entryX=0.5;entryY=1;entryDx=0;entryDy=0;exitX=0.5;exitY=0;exitDx=0;exitDy=0;" edge="1" parent="1" source="rK1L7pS0zqMWwbK4X8Iv-96" target="rK1L7pS0zqMWwbK4X8Iv-85">
          <mxGeometry width="50" height="50" relative="1" as="geometry">
            <mxPoint x="510" y="-60" as="sourcePoint"/>
            <mxPoint x="559.9999999999999" y="-110" as="targetPoint"/>
          </mxGeometry>
        </mxCell>
        <mxCell id="rK1L7pS0zqMWwbK4X8Iv-99" value="R" style="endArrow=classic;html=1;fontSize=12;" edge="1" parent="1">
          <mxGeometry width="50" height="50" relative="1" as="geometry">
            <mxPoint x="670" y="-80" as="sourcePoint"/>
            <mxPoint x="670" y="-70" as="targetPoint"/>
            <Array as="points">
              <mxPoint x="670" y="-90"/>
            </Array>
          </mxGeometry>
        </mxCell>
      </root>
    </mxGraphModel>
  </diagram>
  <diagram id="9R_i_yX9yYmaNdOm9St1" name="generate binding code">
    <mxGraphModel dx="857" dy="465" grid="1" gridSize="10" guides="1" tooltips="1" connect="1" arrows="1" fold="1" page="1" pageScale="1" pageWidth="827" pageHeight="1169" math="0" shadow="0">
      <root>
        <mxCell id="pNmgfaRrWgZkssB5L68v-0"/>
        <mxCell id="pNmgfaRrWgZkssB5L68v-1" parent="pNmgfaRrWgZkssB5L68v-0"/>
        <mxCell id="pNmgfaRrWgZkssB5L68v-8" style="edgeStyle=orthogonalEdgeStyle;rounded=0;html=1;exitX=1;exitY=0;entryX=1;entryY=0;jettySize=auto;orthogonalLoop=1;" edge="1" parent="pNmgfaRrWgZkssB5L68v-1">
          <mxGeometry relative="1" as="geometry">
            <mxPoint x="87" y="83" as="sourcePoint"/>
            <mxPoint x="87" y="83" as="targetPoint"/>
          </mxGeometry>
        </mxCell>
        <mxCell id="pNmgfaRrWgZkssB5L68v-9" value="" style="ellipse;whiteSpace=wrap;html=1;aspect=fixed;fillColor=#000000;" vertex="1" parent="pNmgfaRrWgZkssB5L68v-1">
          <mxGeometry x="95" y="80" width="20" height="20" as="geometry"/>
        </mxCell>
        <mxCell id="pNmgfaRrWgZkssB5L68v-10" value="Start" style="rounded=1;whiteSpace=wrap;html=1;strokeWidth=2;arcSize=50;" vertex="1" parent="pNmgfaRrWgZkssB5L68v-1">
          <mxGeometry x="30" y="135" width="150" height="40" as="geometry"/>
        </mxCell>
        <mxCell id="pNmgfaRrWgZkssB5L68v-11" value="" style="endArrow=none;dashed=1;html=1;" edge="1" parent="pNmgfaRrWgZkssB5L68v-1">
          <mxGeometry width="50" height="50" relative="1" as="geometry">
            <mxPoint x="200" y="1360" as="sourcePoint"/>
            <mxPoint x="199.5" y="40" as="targetPoint"/>
          </mxGeometry>
        </mxCell>
        <mxCell id="pNmgfaRrWgZkssB5L68v-12" value="Generate Binding Code" style="text;html=1;strokeColor=none;fillColor=none;align=center;verticalAlign=middle;whiteSpace=wrap;rounded=0;" vertex="1" parent="pNmgfaRrWgZkssB5L68v-1">
          <mxGeometry x="25" y="40" width="160" height="20" as="geometry"/>
        </mxCell>
        <mxCell id="pNmgfaRrWgZkssB5L68v-13" style="edgeStyle=orthogonalEdgeStyle;rounded=0;html=1;exitX=0.5;exitY=1;jettySize=auto;orthogonalLoop=1;" edge="1" parent="pNmgfaRrWgZkssB5L68v-1" source="pNmgfaRrWgZkssB5L68v-9" target="pNmgfaRrWgZkssB5L68v-10">
          <mxGeometry relative="1" as="geometry">
            <mxPoint x="130" y="100" as="sourcePoint"/>
            <mxPoint x="130" y="280" as="targetPoint"/>
          </mxGeometry>
        </mxCell>
        <mxCell id="pNmgfaRrWgZkssB5L68v-16" value="" style="edgeStyle=elbowEdgeStyle;elbow=vertical;endArrow=classic;html=1;exitX=0.5;exitY=1;entryX=0.5;entryY=0;entryDx=0;entryDy=0;" edge="1" parent="pNmgfaRrWgZkssB5L68v-1" source="pNmgfaRrWgZkssB5L68v-10" target="pNmgfaRrWgZkssB5L68v-63">
          <mxGeometry width="50" height="50" relative="1" as="geometry">
            <mxPoint x="230" y="210" as="sourcePoint"/>
            <mxPoint x="280" y="160" as="targetPoint"/>
          </mxGeometry>
        </mxCell>
        <mxCell id="pNmgfaRrWgZkssB5L68v-17" style="rounded=1;html=1;entryX=0.5;entryY=0;jettySize=auto;orthogonalLoop=1;exitX=0.5;exitY=1;exitDx=0;exitDy=0;entryDx=0;entryDy=0;edgeStyle=orthogonalEdgeStyle;" edge="1" parent="pNmgfaRrWgZkssB5L68v-1" source="pNmgfaRrWgZkssB5L68v-64" target="pNmgfaRrWgZkssB5L68v-65">
          <mxGeometry relative="1" as="geometry">
            <mxPoint x="495" y="400" as="targetPoint"/>
          </mxGeometry>
        </mxCell>
        <mxCell id="pNmgfaRrWgZkssB5L68v-18" style="edgeStyle=none;rounded=0;html=1;exitX=0.5;exitY=1;entryX=0.5;entryY=0;jettySize=auto;orthogonalLoop=1;exitDx=0;exitDy=0;entryDx=0;entryDy=0;" edge="1" parent="pNmgfaRrWgZkssB5L68v-1" source="pNmgfaRrWgZkssB5L68v-63" target="pNmgfaRrWgZkssB5L68v-64">
          <mxGeometry relative="1" as="geometry">
            <mxPoint x="520" y="280" as="sourcePoint"/>
          </mxGeometry>
        </mxCell>
        <mxCell id="pNmgfaRrWgZkssB5L68v-19" value="diagnostic&amp;nbsp;parameter status&amp;nbsp;" style="text;html=1;strokeColor=none;fillColor=none;align=center;verticalAlign=middle;whiteSpace=wrap;rounded=0;" vertex="1" parent="pNmgfaRrWgZkssB5L68v-1">
          <mxGeometry x="335" y="40" width="215" height="20" as="geometry"/>
        </mxCell>
        <mxCell id="pNmgfaRrWgZkssB5L68v-20" style="edgeStyle=orthogonalEdgeStyle;rounded=1;orthogonalLoop=1;jettySize=auto;html=1;exitX=0.5;exitY=1;exitDx=0;exitDy=0;entryX=0.5;entryY=0;entryDx=0;entryDy=0;" edge="1" parent="pNmgfaRrWgZkssB5L68v-1" source="pNmgfaRrWgZkssB5L68v-66" target="pNmgfaRrWgZkssB5L68v-67">
          <mxGeometry relative="1" as="geometry"/>
        </mxCell>
        <mxCell id="pNmgfaRrWgZkssB5L68v-21" value="&#xa;change diagnostic mapping status to inactive&#xa;" style="rounded=1;strokeWidth=2;arcSize=50;horizontal=1;whiteSpace=wrap;" vertex="1" parent="pNmgfaRrWgZkssB5L68v-1">
          <mxGeometry x="240" y="400" width="180" height="50" as="geometry"/>
        </mxCell>
        <mxCell id="pNmgfaRrWgZkssB5L68v-22" value="" style="elbow=vertical;endArrow=classic;html=1;exitX=0.5;exitY=1;entryX=0.5;entryY=0;exitDx=0;exitDy=0;entryDx=0;entryDy=0;" edge="1" parent="pNmgfaRrWgZkssB5L68v-1" source="pNmgfaRrWgZkssB5L68v-65" target="pNmgfaRrWgZkssB5L68v-66">
          <mxGeometry width="50" height="50" relative="1" as="geometry">
            <mxPoint x="380" y="350" as="sourcePoint"/>
            <mxPoint x="335" y="275" as="targetPoint"/>
          </mxGeometry>
        </mxCell>
        <mxCell id="pNmgfaRrWgZkssB5L68v-23" value="" style="rhombus;whiteSpace=wrap;html=1;fillColor=#FFFFFF;" vertex="1" parent="pNmgfaRrWgZkssB5L68v-1">
          <mxGeometry x="570" y="584" width="20" height="20" as="geometry"/>
        </mxCell>
        <mxCell id="pNmgfaRrWgZkssB5L68v-24" style="edgeStyle=none;rounded=0;html=1;exitX=0;exitY=1;entryX=0;entryY=1;jettySize=auto;orthogonalLoop=1;" edge="1" parent="pNmgfaRrWgZkssB5L68v-1" source="pNmgfaRrWgZkssB5L68v-23" target="pNmgfaRrWgZkssB5L68v-23">
          <mxGeometry relative="1" as="geometry"/>
        </mxCell>
        <mxCell id="pNmgfaRrWgZkssB5L68v-25" style="edgeStyle=none;rounded=0;html=1;exitX=0.5;exitY=1;entryX=0.5;entryY=0;jettySize=auto;orthogonalLoop=1;exitDx=0;exitDy=0;" edge="1" parent="pNmgfaRrWgZkssB5L68v-1" source="pNmgfaRrWgZkssB5L68v-52" target="pNmgfaRrWgZkssB5L68v-27">
          <mxGeometry relative="1" as="geometry">
            <mxPoint x="470" y="1280" as="sourcePoint"/>
          </mxGeometry>
        </mxCell>
        <mxCell id="pNmgfaRrWgZkssB5L68v-26" value="" style="group" vertex="1" connectable="0" parent="pNmgfaRrWgZkssB5L68v-1">
          <mxGeometry x="505" y="1329" width="30" height="30" as="geometry"/>
        </mxCell>
        <mxCell id="pNmgfaRrWgZkssB5L68v-27" value="" style="ellipse;whiteSpace=wrap;html=1;aspect=fixed;fillColor=#FFFFFF;" vertex="1" parent="pNmgfaRrWgZkssB5L68v-26">
          <mxGeometry width="30" height="30" as="geometry"/>
        </mxCell>
        <mxCell id="pNmgfaRrWgZkssB5L68v-28" value="" style="ellipse;whiteSpace=wrap;html=1;aspect=fixed;fillColor=#000000;" vertex="1" parent="pNmgfaRrWgZkssB5L68v-26">
          <mxGeometry x="6" y="6" width="17" height="17" as="geometry"/>
        </mxCell>
        <mxCell id="pNmgfaRrWgZkssB5L68v-29" value="" style="rhombus;whiteSpace=wrap;html=1;fillColor=#FFFFFF;" vertex="1" parent="pNmgfaRrWgZkssB5L68v-1">
          <mxGeometry x="510" y="310" width="20" height="20" as="geometry"/>
        </mxCell>
        <mxCell id="pNmgfaRrWgZkssB5L68v-30" value="&lt;span&gt;diagnostic&lt;/span&gt;&lt;span&gt;&amp;nbsp;parameter status&amp;nbsp;&lt;/span&gt;" style="text;html=1;strokeColor=none;fillColor=none;align=center;verticalAlign=middle;whiteSpace=wrap;rounded=0;" vertex="1" parent="pNmgfaRrWgZkssB5L68v-1">
          <mxGeometry x="530" y="310" width="160" height="20" as="geometry"/>
        </mxCell>
        <mxCell id="pNmgfaRrWgZkssB5L68v-31" value="inactive&lt;br&gt;" style="text;html=1;strokeColor=none;fillColor=none;align=center;verticalAlign=middle;whiteSpace=wrap;rounded=0;" vertex="1" parent="pNmgfaRrWgZkssB5L68v-1">
          <mxGeometry x="363" y="340" width="50" height="20" as="geometry"/>
        </mxCell>
        <mxCell id="pNmgfaRrWgZkssB5L68v-32" value="Success" style="text;html=1;" vertex="1" parent="pNmgfaRrWgZkssB5L68v-1">
          <mxGeometry x="110" y="300" width="42" height="30" as="geometry"/>
        </mxCell>
        <mxCell id="pNmgfaRrWgZkssB5L68v-33" value="" style="edgeStyle=orthogonalEdgeStyle;elbow=vertical;endArrow=classic;html=1;entryX=0.5;entryY=0;exitX=0.5;exitY=1;exitDx=0;exitDy=0;entryDx=0;entryDy=0;" edge="1" parent="pNmgfaRrWgZkssB5L68v-1" source="pNmgfaRrWgZkssB5L68v-67" target="pNmgfaRrWgZkssB5L68v-68">
          <mxGeometry width="50" height="50" relative="1" as="geometry">
            <mxPoint x="505" y="435" as="sourcePoint"/>
            <mxPoint x="560" y="480" as="targetPoint"/>
          </mxGeometry>
        </mxCell>
        <mxCell id="pNmgfaRrWgZkssB5L68v-34" value="yes" style="text;html=1;strokeColor=none;fillColor=none;align=center;verticalAlign=middle;whiteSpace=wrap;rounded=0;" vertex="1" parent="pNmgfaRrWgZkssB5L68v-1">
          <mxGeometry x="580" y="610" width="35" height="20" as="geometry"/>
        </mxCell>
        <mxCell id="pNmgfaRrWgZkssB5L68v-35" style="edgeStyle=orthogonalEdgeStyle;rounded=0;orthogonalLoop=1;jettySize=auto;html=1;exitX=0.5;exitY=1;exitDx=0;exitDy=0;entryX=0.5;entryY=0;entryDx=0;entryDy=0;" edge="1" parent="pNmgfaRrWgZkssB5L68v-1" source="pNmgfaRrWgZkssB5L68v-36" target="pNmgfaRrWgZkssB5L68v-56">
          <mxGeometry relative="1" as="geometry"/>
        </mxCell>
        <mxCell id="pNmgfaRrWgZkssB5L68v-36" value="&#xa;get all diagnostic parameter&#xa;referenced performance test &#xa;" style="rounded=1;strokeWidth=2;arcSize=50;horizontal=1;whiteSpace=wrap;" vertex="1" parent="pNmgfaRrWgZkssB5L68v-1">
          <mxGeometry x="480" y="634" width="200" height="50" as="geometry"/>
        </mxCell>
        <mxCell id="pNmgfaRrWgZkssB5L68v-37" value="" style="rounded=0;whiteSpace=wrap;html=1;fillColor=#000000;" vertex="1" parent="pNmgfaRrWgZkssB5L68v-1">
          <mxGeometry x="240" y="520" width="560" height="10" as="geometry"/>
        </mxCell>
        <mxCell id="pNmgfaRrWgZkssB5L68v-38" style="edgeStyle=orthogonalEdgeStyle;rounded=1;orthogonalLoop=1;jettySize=auto;html=1;entryX=0.5;entryY=0;entryDx=0;entryDy=0;exitX=0.5;exitY=1;exitDx=0;exitDy=0;" edge="1" parent="pNmgfaRrWgZkssB5L68v-1" source="pNmgfaRrWgZkssB5L68v-23" target="pNmgfaRrWgZkssB5L68v-36">
          <mxGeometry relative="1" as="geometry">
            <mxPoint x="460" y="599" as="sourcePoint"/>
            <mxPoint x="470" y="530" as="targetPoint"/>
          </mxGeometry>
        </mxCell>
        <mxCell id="pNmgfaRrWgZkssB5L68v-39" value="Has referenced &lt;br&gt;performance test" style="text;html=1;" vertex="1" parent="pNmgfaRrWgZkssB5L68v-1">
          <mxGeometry x="597.5" y="574" width="110" height="30" as="geometry"/>
        </mxCell>
        <mxCell id="pNmgfaRrWgZkssB5L68v-40" value="" style="edgeStyle=orthogonalEdgeStyle;rounded=1;orthogonalLoop=1;jettySize=auto;html=1;exitX=0.5;exitY=1;exitDx=0;exitDy=0;" edge="1" parent="pNmgfaRrWgZkssB5L68v-1" source="pNmgfaRrWgZkssB5L68v-41" target="pNmgfaRrWgZkssB5L68v-45">
          <mxGeometry relative="1" as="geometry"/>
        </mxCell>
        <mxCell id="pNmgfaRrWgZkssB5L68v-41" value="" style="rhombus;whiteSpace=wrap;html=1;fillColor=#FFFFFF;" vertex="1" parent="pNmgfaRrWgZkssB5L68v-1">
          <mxGeometry x="570" y="795" width="20" height="20" as="geometry"/>
        </mxCell>
        <mxCell id="pNmgfaRrWgZkssB5L68v-42" value="parameter is formule" style="text;html=1;" vertex="1" parent="pNmgfaRrWgZkssB5L68v-1">
          <mxGeometry x="590" y="787.5" width="110" height="30" as="geometry"/>
        </mxCell>
        <mxCell id="pNmgfaRrWgZkssB5L68v-43" value="no&lt;br&gt;" style="text;html=1;strokeColor=none;fillColor=none;align=center;verticalAlign=middle;whiteSpace=wrap;rounded=0;" vertex="1" parent="pNmgfaRrWgZkssB5L68v-1">
          <mxGeometry x="617.5" y="822.5" width="35" height="20" as="geometry"/>
        </mxCell>
        <mxCell id="pNmgfaRrWgZkssB5L68v-44" value="" style="edgeStyle=orthogonalEdgeStyle;rounded=1;orthogonalLoop=1;jettySize=auto;html=1;exitX=0.5;exitY=1;exitDx=0;exitDy=0;" edge="1" parent="pNmgfaRrWgZkssB5L68v-1" source="pNmgfaRrWgZkssB5L68v-45" target="pNmgfaRrWgZkssB5L68v-47">
          <mxGeometry relative="1" as="geometry"/>
        </mxCell>
        <mxCell id="pNmgfaRrWgZkssB5L68v-45" value="&#xa;calculate diagnostic formule value&#xa;" style="rounded=1;strokeWidth=2;arcSize=50;horizontal=1;whiteSpace=wrap;" vertex="1" parent="pNmgfaRrWgZkssB5L68v-1">
          <mxGeometry x="413" y="874" width="153" height="50" as="geometry"/>
        </mxCell>
        <mxCell id="pNmgfaRrWgZkssB5L68v-46" value="" style="edgeStyle=orthogonalEdgeStyle;rounded=0;orthogonalLoop=1;jettySize=auto;html=1;" edge="1" parent="pNmgfaRrWgZkssB5L68v-1" source="pNmgfaRrWgZkssB5L68v-47" target="pNmgfaRrWgZkssB5L68v-50">
          <mxGeometry relative="1" as="geometry"/>
        </mxCell>
        <mxCell id="pNmgfaRrWgZkssB5L68v-47" value="" style="rhombus;whiteSpace=wrap;html=1;fillColor=#FFFFFF;" vertex="1" parent="pNmgfaRrWgZkssB5L68v-1">
          <mxGeometry x="570" y="970" width="20" height="20" as="geometry"/>
        </mxCell>
        <mxCell id="pNmgfaRrWgZkssB5L68v-48" value="parameter mapping is active" style="text;html=1;" vertex="1" parent="pNmgfaRrWgZkssB5L68v-1">
          <mxGeometry x="590" y="972" width="140" height="30" as="geometry"/>
        </mxCell>
        <mxCell id="pNmgfaRrWgZkssB5L68v-49" value="" style="edgeStyle=orthogonalEdgeStyle;rounded=1;orthogonalLoop=1;jettySize=auto;html=1;entryX=0.5;entryY=0;entryDx=0;entryDy=0;" edge="1" parent="pNmgfaRrWgZkssB5L68v-1" source="pNmgfaRrWgZkssB5L68v-50" target="pNmgfaRrWgZkssB5L68v-52">
          <mxGeometry relative="1" as="geometry">
            <mxPoint x="580" y="1180" as="targetPoint"/>
          </mxGeometry>
        </mxCell>
        <mxCell id="pNmgfaRrWgZkssB5L68v-50" value="&#xa;calculate diagnostic mapping value&#xa;" style="rounded=1;strokeWidth=2;arcSize=50;horizontal=1;whiteSpace=wrap;" vertex="1" parent="pNmgfaRrWgZkssB5L68v-1">
          <mxGeometry x="480" y="1050" width="200" height="50" as="geometry"/>
        </mxCell>
        <mxCell id="pNmgfaRrWgZkssB5L68v-51" value="yes" style="text;html=1;strokeColor=none;fillColor=none;align=center;verticalAlign=middle;whiteSpace=wrap;rounded=0;" vertex="1" parent="pNmgfaRrWgZkssB5L68v-1">
          <mxGeometry x="582.5" y="1016" width="35" height="20" as="geometry"/>
        </mxCell>
        <mxCell id="pNmgfaRrWgZkssB5L68v-52" value="" style="rounded=0;whiteSpace=wrap;html=1;fillColor=#000000;" vertex="1" parent="pNmgfaRrWgZkssB5L68v-1">
          <mxGeometry x="240" y="1238" width="560" height="10" as="geometry"/>
        </mxCell>
        <mxCell id="pNmgfaRrWgZkssB5L68v-53" value="" style="edgeStyle=orthogonalEdgeStyle;elbow=vertical;endArrow=classic;html=1;exitX=0;exitY=0.5;exitDx=0;exitDy=0;entryX=0.25;entryY=0;entryDx=0;entryDy=0;" edge="1" parent="pNmgfaRrWgZkssB5L68v-1" source="pNmgfaRrWgZkssB5L68v-23" target="pNmgfaRrWgZkssB5L68v-52">
          <mxGeometry width="50" height="50" relative="1" as="geometry">
            <mxPoint x="550" y="610" as="sourcePoint"/>
            <mxPoint x="349" y="1330" as="targetPoint"/>
            <Array as="points">
              <mxPoint x="380" y="594"/>
            </Array>
          </mxGeometry>
        </mxCell>
        <mxCell id="pNmgfaRrWgZkssB5L68v-54" value="no" style="text;html=1;strokeColor=none;fillColor=none;align=center;verticalAlign=middle;whiteSpace=wrap;rounded=0;" vertex="1" parent="pNmgfaRrWgZkssB5L68v-1">
          <mxGeometry x="440" y="574" width="35" height="20" as="geometry"/>
        </mxCell>
        <mxCell id="pNmgfaRrWgZkssB5L68v-55" value="" style="edgeStyle=orthogonalEdgeStyle;rounded=0;orthogonalLoop=1;jettySize=auto;html=1;entryX=0.5;entryY=0;entryDx=0;entryDy=0;" edge="1" parent="pNmgfaRrWgZkssB5L68v-1" source="pNmgfaRrWgZkssB5L68v-56" target="pNmgfaRrWgZkssB5L68v-41">
          <mxGeometry relative="1" as="geometry">
            <mxPoint x="580" y="790" as="targetPoint"/>
          </mxGeometry>
        </mxCell>
        <mxCell id="pNmgfaRrWgZkssB5L68v-56" value="&#xa;loop each performance test  diagnostic parameter &#xa;" style="rounded=1;strokeWidth=2;arcSize=50;horizontal=1;whiteSpace=wrap;" vertex="1" parent="pNmgfaRrWgZkssB5L68v-1">
          <mxGeometry x="480" y="713" width="200" height="50" as="geometry"/>
        </mxCell>
        <mxCell id="pNmgfaRrWgZkssB5L68v-57" value="" style="edgeStyle=orthogonalEdgeStyle;rounded=1;orthogonalLoop=1;jettySize=auto;html=1;exitX=0.5;exitY=1;exitDx=0;exitDy=0;entryX=0.5;entryY=0;entryDx=0;entryDy=0;" edge="1" parent="pNmgfaRrWgZkssB5L68v-1" source="pNmgfaRrWgZkssB5L68v-41" target="pNmgfaRrWgZkssB5L68v-61">
          <mxGeometry relative="1" as="geometry">
            <mxPoint x="590" y="825" as="sourcePoint"/>
            <mxPoint x="778" y="884" as="targetPoint"/>
          </mxGeometry>
        </mxCell>
        <mxCell id="pNmgfaRrWgZkssB5L68v-58" value="yes" style="text;html=1;strokeColor=none;fillColor=none;align=center;verticalAlign=middle;whiteSpace=wrap;rounded=0;" vertex="1" parent="pNmgfaRrWgZkssB5L68v-1">
          <mxGeometry x="510" y="822.5" width="35" height="20" as="geometry"/>
        </mxCell>
        <mxCell id="pNmgfaRrWgZkssB5L68v-59" value="" style="edgeStyle=orthogonalEdgeStyle;rounded=1;orthogonalLoop=1;jettySize=auto;html=1;exitX=0.5;exitY=1;exitDx=0;exitDy=0;entryX=0.25;entryY=0;entryDx=0;entryDy=0;" edge="1" parent="pNmgfaRrWgZkssB5L68v-1" source="pNmgfaRrWgZkssB5L68v-47" target="pNmgfaRrWgZkssB5L68v-52">
          <mxGeometry relative="1" as="geometry">
            <mxPoint x="580" y="815" as="sourcePoint"/>
            <mxPoint x="350" y="1240" as="targetPoint"/>
            <Array as="points">
              <mxPoint x="580" y="1020"/>
              <mxPoint x="380" y="1020"/>
            </Array>
          </mxGeometry>
        </mxCell>
        <mxCell id="pNmgfaRrWgZkssB5L68v-60" value="no" style="text;html=1;strokeColor=none;fillColor=none;align=center;verticalAlign=middle;whiteSpace=wrap;rounded=0;" vertex="1" parent="pNmgfaRrWgZkssB5L68v-1">
          <mxGeometry x="510" y="1002" width="35" height="20" as="geometry"/>
        </mxCell>
        <mxCell id="pNmgfaRrWgZkssB5L68v-61" value="&#xa;get all formule parameters which refer to this parameter&#xa;" style="rounded=1;strokeWidth=2;arcSize=50;horizontal=1;whiteSpace=wrap;" vertex="1" parent="pNmgfaRrWgZkssB5L68v-1">
          <mxGeometry x="597.5" y="874" width="153" height="50" as="geometry"/>
        </mxCell>
        <mxCell id="pNmgfaRrWgZkssB5L68v-62" value="" style="edgeStyle=orthogonalEdgeStyle;rounded=1;orthogonalLoop=1;jettySize=auto;html=1;exitX=1;exitY=0.5;exitDx=0;exitDy=0;entryX=1;entryY=0.5;entryDx=0;entryDy=0;" edge="1" parent="pNmgfaRrWgZkssB5L68v-1" source="pNmgfaRrWgZkssB5L68v-61" target="pNmgfaRrWgZkssB5L68v-56">
          <mxGeometry relative="1" as="geometry">
            <mxPoint x="590" y="825" as="sourcePoint"/>
            <mxPoint x="697" y="884" as="targetPoint"/>
          </mxGeometry>
        </mxCell>
        <mxCell id="pNmgfaRrWgZkssB5L68v-63" value="Login BSU SportsOne" style="rounded=1;whiteSpace=wrap;html=1;strokeWidth=2;arcSize=50;" vertex="1" parent="pNmgfaRrWgZkssB5L68v-1">
          <mxGeometry x="30" y="210" width="150" height="40" as="geometry"/>
        </mxCell>
        <mxCell id="pNmgfaRrWgZkssB5L68v-64" value="" style="rhombus;whiteSpace=wrap;html=1;fillColor=#FFFFFF;" vertex="1" parent="pNmgfaRrWgZkssB5L68v-1">
          <mxGeometry x="95" y="285" width="20" height="20" as="geometry"/>
        </mxCell>
        <mxCell id="pNmgfaRrWgZkssB5L68v-65" value="Request BSU Player User List" style="rounded=1;whiteSpace=wrap;html=1;strokeWidth=2;arcSize=50;" vertex="1" parent="pNmgfaRrWgZkssB5L68v-1">
          <mxGeometry x="30" y="330" width="150" height="40" as="geometry"/>
        </mxCell>
        <mxCell id="pNmgfaRrWgZkssB5L68v-66" value="Generate Binding Code" style="rounded=1;whiteSpace=wrap;html=1;strokeWidth=2;arcSize=50;" vertex="1" parent="pNmgfaRrWgZkssB5L68v-1">
          <mxGeometry x="30" y="403" width="150" height="40" as="geometry"/>
        </mxCell>
        <mxCell id="pNmgfaRrWgZkssB5L68v-67" value="Login NMZY SportsOne" style="rounded=1;whiteSpace=wrap;html=1;strokeWidth=2;arcSize=50;" vertex="1" parent="pNmgfaRrWgZkssB5L68v-1">
          <mxGeometry x="30" y="480" width="150" height="40" as="geometry"/>
        </mxCell>
        <mxCell id="pNmgfaRrWgZkssB5L68v-70" value="" style="edgeStyle=none;rounded=0;orthogonalLoop=1;jettySize=auto;html=1;fontSize=12;entryX=0.5;entryY=0;entryDx=0;entryDy=0;" edge="1" parent="pNmgfaRrWgZkssB5L68v-1" source="pNmgfaRrWgZkssB5L68v-68" target="pNmgfaRrWgZkssB5L68v-72">
          <mxGeometry relative="1" as="geometry"/>
        </mxCell>
        <mxCell id="pNmgfaRrWgZkssB5L68v-68" value="" style="rhombus;whiteSpace=wrap;html=1;fillColor=#FFFFFF;" vertex="1" parent="pNmgfaRrWgZkssB5L68v-1">
          <mxGeometry x="95" y="554" width="20" height="20" as="geometry"/>
        </mxCell>
        <mxCell id="pNmgfaRrWgZkssB5L68v-71" value="Success" style="text;html=1;" vertex="1" parent="pNmgfaRrWgZkssB5L68v-1">
          <mxGeometry x="110" y="572" width="42" height="30" as="geometry"/>
        </mxCell>
        <mxCell id="pNmgfaRrWgZkssB5L68v-74" style="edgeStyle=none;rounded=0;orthogonalLoop=1;jettySize=auto;html=1;exitX=0.5;exitY=1;exitDx=0;exitDy=0;entryX=0.5;entryY=0;entryDx=0;entryDy=0;fontSize=12;" edge="1" parent="pNmgfaRrWgZkssB5L68v-1" source="pNmgfaRrWgZkssB5L68v-72" target="pNmgfaRrWgZkssB5L68v-73">
          <mxGeometry relative="1" as="geometry"/>
        </mxCell>
        <mxCell id="pNmgfaRrWgZkssB5L68v-72" value="Request NMZY Player User List" style="rounded=1;whiteSpace=wrap;html=1;strokeWidth=2;arcSize=50;" vertex="1" parent="pNmgfaRrWgZkssB5L68v-1">
          <mxGeometry x="30" y="604" width="150" height="40" as="geometry"/>
        </mxCell>
        <mxCell id="pNmgfaRrWgZkssB5L68v-73" value="Generate Binding Code" style="rounded=1;whiteSpace=wrap;html=1;strokeWidth=2;arcSize=50;" vertex="1" parent="pNmgfaRrWgZkssB5L68v-1">
          <mxGeometry x="30" y="684" width="150" height="40" as="geometry"/>
        </mxCell>
      </root>
    </mxGraphModel>
  </diagram>
</mxfile>
